<?xml version="1.0" encoding="utf-8"?>
<!-- Generator: Adobe Illustrator 19.2.1, SVG Export Plug-In . SVG Version: 6.00 Build 0)  -->
<svg version="1.1" id="Calque_1" xmlns="http://www.w3.org/2000/svg" xmlns:xlink="http://www.w3.org/1999/xlink" x="0px" y="0px"
	 viewBox="0 0 1000 1000" style="enable-background:new 0 0 1000 1000;" xml:space="preserve">
<style type="text/css">
	.st0{clip-path:url(#SVGID_2_);}
	.st1{clip-path:url(#SVGID_4_);enable-background:new    ;}
	.st2{clip-path:url(#SVGID_6_);}
	.st3{clip-path:url(#SVGID_8_);}
	.st4{clip-path:url(#SVGID_10_);fill:#FFFFFF;}
	.st5{clip-path:url(#SVGID_12_);}
	.st6{clip-path:url(#SVGID_14_);enable-background:new    ;}
	.st7{clip-path:url(#SVGID_16_);}
	.st8{clip-path:url(#SVGID_18_);}
	.st9{clip-path:url(#SVGID_20_);fill:#FFFFFF;}
	.st10{clip-path:url(#SVGID_22_);}
	.st11{clip-path:url(#SVGID_24_);fill:#FFFFFF;}
	.st12{clip-path:url(#SVGID_26_);}
	.st13{clip-path:url(#SVGID_28_);enable-background:new    ;}
	.st14{clip-path:url(#SVGID_30_);}
	.st15{clip-path:url(#SVGID_32_);}
	.st16{clip-path:url(#SVGID_34_);fill:#FFFFFF;}
	.st17{clip-path:url(#SVGID_36_);}
	.st18{clip-path:url(#SVGID_38_);enable-background:new    ;}
	.st19{clip-path:url(#SVGID_40_);}
	.st20{clip-path:url(#SVGID_42_);}
	.st21{clip-path:url(#SVGID_44_);fill:#FFFFFF;}
	.st22{clip-path:url(#SVGID_46_);}
	.st23{clip-path:url(#SVGID_48_);enable-background:new    ;}
	.st24{clip-path:url(#SVGID_50_);}
	.st25{clip-path:url(#SVGID_52_);}
	.st26{clip-path:url(#SVGID_54_);fill:#FFFFFF;}
	.st27{clip-path:url(#SVGID_56_);}
	.st28{clip-path:url(#SVGID_58_);fill:#FFFFFF;}
	.st29{clip-path:url(#SVGID_60_);}
	.st30{clip-path:url(#SVGID_62_);enable-background:new    ;}
	.st31{clip-path:url(#SVGID_64_);}
	.st32{clip-path:url(#SVGID_66_);}
	.st33{clip-path:url(#SVGID_68_);fill:#FFFFFF;}
	.st34{clip-path:url(#SVGID_70_);}
	.st35{clip-path:url(#SVGID_72_);fill:#FFFFFF;}
</style>
<g>
	<defs>
		<rect id="SVGID_1_" x="220.6" y="243.1" width="57.8" height="173.6"/>
	</defs>
	<clipPath id="SVGID_2_">
		<use xlink:href="#SVGID_1_"  style="overflow:visible;"/>
	</clipPath>
	<g class="st0">
		<defs>
			<rect id="SVGID_3_" x="-1447" y="-520.6" width="3956.1" height="2241.8"/>
		</defs>
		<clipPath id="SVGID_4_">
			<use xlink:href="#SVGID_3_"  style="overflow:visible;"/>
		</clipPath>
		<g class="st1">
			<g>
				<defs>
					<rect id="SVGID_5_" x="220.6" y="243.1" width="60.4" height="175.8"/>
				</defs>
				<clipPath id="SVGID_6_">
					<use xlink:href="#SVGID_5_"  style="overflow:visible;"/>
				</clipPath>
				<g class="st2">
					<defs>
						<path id="SVGID_7_" d="M277.5,415.1h-55.4V243.9c0-0.4-0.3-0.8-0.8-0.8c-0.4,0-0.8,0.4-0.8,0.8v172c0,0.4,0.3,0.8,0.8,0.8
							h56.2c0.4,0,0.8-0.4,0.8-0.8C278.3,415.5,278,415.1,277.5,415.1"/>
					</defs>
					<clipPath id="SVGID_8_">
						<use xlink:href="#SVGID_7_"  style="overflow:visible;"/>
					</clipPath>
					<g class="st3">
						<defs>
							<rect id="SVGID_9_" x="220.6" y="243.1" width="60.4" height="175.8"/>
						</defs>
						<clipPath id="SVGID_10_">
							<use xlink:href="#SVGID_9_"  style="overflow:visible;"/>
						</clipPath>
						<rect x="206.8" y="229.4" class="st4" width="85.2" height="201"/>
					</g>
				</g>
			</g>
		</g>
	</g>
</g>
<g>
	<defs>
		<rect id="SVGID_11_" x="278.3" y="303.6" width="57.8" height="116.2"/>
	</defs>
	<clipPath id="SVGID_12_">
		<use xlink:href="#SVGID_11_"  style="overflow:visible;"/>
	</clipPath>
	<g class="st5">
		<defs>
			<rect id="SVGID_13_" x="-1447" y="-520.6" width="3956.1" height="2241.8"/>
		</defs>
		<clipPath id="SVGID_14_">
			<use xlink:href="#SVGID_13_"  style="overflow:visible;"/>
		</clipPath>
		<g class="st6">
			<g>
				<defs>
					<rect id="SVGID_15_" x="278.3" y="303.6" width="60.4" height="118.1"/>
				</defs>
				<clipPath id="SVGID_16_">
					<use xlink:href="#SVGID_15_"  style="overflow:visible;"/>
				</clipPath>
				<g class="st7">
					<defs>
						<path id="SVGID_17_" d="M335.2,403.9c-0.4,0-0.8,0.4-0.8,0.8c0,9.3-4.5,13.5-8.6,13.5c-4.1,0-8.6-4.2-8.6-13.5v-4.8v-76.4
							v-19.1c0-0.4-0.3-0.8-0.8-0.8c-0.4,0-0.8,0.4-0.8,0.8v11.3c-3-7.1-9.9-12.1-18-12.1c-10.8,0-19.5,8.9-19.5,19.9v76.4
							c0,11,8.8,19.9,19.5,19.9c8.2,0,15.2-5.1,18.1-12.4c0.8,8.5,5.6,12.4,10,12.4c4.9,0,10.1-4.7,10.1-15.1
							C336,404.3,335.7,403.9,335.2,403.9 M297.8,418.2c-9.9,0-18-8.2-18-18.3v-76.4c0-10.1,8.1-18.3,18-18.3s18,8.2,18,18.3v76.4
							C315.7,410,307.7,418.2,297.8,418.2"/>
					</defs>
					<clipPath id="SVGID_18_">
						<use xlink:href="#SVGID_17_"  style="overflow:visible;"/>
					</clipPath>
					<g class="st8">
						<defs>
							<rect id="SVGID_19_" x="278.3" y="303.6" width="60.4" height="118.1"/>
						</defs>
						<clipPath id="SVGID_20_">
							<use xlink:href="#SVGID_19_"  style="overflow:visible;"/>
						</clipPath>
						<rect x="264.5" y="289.8" class="st9" width="85.2" height="143.7"/>
					</g>
				</g>
			</g>
		</g>
	</g>
</g>
<g>
	<defs>
		<path id="SVGID_21_" d="M411.7,442.3c0-20.4-16.3-37-36.4-37h-41c-0.6,0-1.1,0.5-1.1,1.1v233.1c0,0.6,0.5,1.1,1.1,1.1h41
			c20.1,0,36.4-16.6,36.4-37v-31.7c0-5.7-1.3-11.5-3.8-16.6c2.5-5,3.8-10.6,3.8-16.5V442.3z M409.5,571.8v31.7
			c0,19.2-15.4,34.9-34.3,34.9h-39.9v-62.6h39.9c13.3,0,25-7.3,31.3-18.2C408.5,562,409.5,566.8,409.5,571.8z M409.5,538.7
			c0,19.2-15.4,34.9-34.3,34.9h-39.9V407.4h39.9c18.9,0,34.3,15.6,34.3,34.9V538.7z"/>
	</defs>
	<clipPath id="SVGID_22_">
		<use xlink:href="#SVGID_21_"  style="overflow:visible;"/>
	</clipPath>
	<g class="st10">
		<defs>
			<rect id="SVGID_23_" x="-1447" y="-520.6" width="3956.1" height="2241.8"/>
		</defs>
		<clipPath id="SVGID_24_">
			<use xlink:href="#SVGID_23_"  style="overflow:visible;"/>
		</clipPath>
		<rect x="319.5" y="391.5" class="st11" width="105.9" height="262.7"/>
	</g>
</g>
<g>
	<defs>
		<rect id="SVGID_25_" x="473.3" y="405.2" width="78.5" height="236.8"/>
	</defs>
	<clipPath id="SVGID_26_">
		<use xlink:href="#SVGID_25_"  style="overflow:visible;"/>
	</clipPath>
	<g class="st12">
		<defs>
			<rect id="SVGID_27_" x="-1447" y="-520.6" width="3956.1" height="2241.8"/>
		</defs>
		<clipPath id="SVGID_28_">
			<use xlink:href="#SVGID_27_"  style="overflow:visible;"/>
		</clipPath>
		<g class="st13">
			<g>
				<defs>
					<rect id="SVGID_29_" x="473.3" y="405.2" width="79.7" height="239"/>
				</defs>
				<clipPath id="SVGID_30_">
					<use xlink:href="#SVGID_29_"  style="overflow:visible;"/>
				</clipPath>
				<g class="st14">
					<defs>
						<path id="SVGID_31_" d="M525.3,484.5c-10.9,0-20.3,6.8-24.4,16.4v-46.6c12.4-0.7,25.4-13.3,25.4-33.4
							c0-10.3-6.9-15.6-13.8-15.6c-6.8,0-13.8,5.4-13.8,15.6v31.3c-7.3-0.1-23.3-1.2-23.3-24.8c0-0.6-0.5-1.1-1.1-1.1
							c-0.6,0-1.1,0.5-1.1,1.1c0,25.6,18,26.9,25.4,27v57.2v103.6c0,14.9,11.9,27,26.5,27c14.6,0,26.5-12.1,26.5-27V511.5
							C551.8,496.6,539.9,484.5,525.3,484.5z M500.9,420.9c0-9.3,6-13.5,11.7-13.5c5.6,0,11.7,4.2,11.7,13.5
							c0,18.7-11.9,30.6-23.3,31.3V420.9z M549.6,615.1c0,13.7-10.9,24.8-24.4,24.8s-24.4-11.1-24.4-24.8V511.5
							c0-13.7,10.9-24.8,24.4-24.8s24.4,11.1,24.4,24.8V615.1z"/>
					</defs>
					<clipPath id="SVGID_32_">
						<use xlink:href="#SVGID_31_"  style="overflow:visible;"/>
					</clipPath>
					<g class="st15">
						<defs>
							<rect id="SVGID_33_" x="473.3" y="405.2" width="79.7" height="239"/>
						</defs>
						<clipPath id="SVGID_34_">
							<use xlink:href="#SVGID_33_"  style="overflow:visible;"/>
						</clipPath>
						<rect x="459.6" y="391.5" class="st16" width="105.9" height="264.3"/>
					</g>
				</g>
			</g>
		</g>
	</g>
</g>
<g>
	<defs>
		<rect id="SVGID_35_" x="432.1" y="479.4" width="53" height="157.5"/>
	</defs>
	<clipPath id="SVGID_36_">
		<use xlink:href="#SVGID_35_"  style="overflow:visible;"/>
	</clipPath>
	<g class="st17">
		<defs>
			<rect id="SVGID_37_" x="-1447" y="-520.6" width="3956.1" height="2241.8"/>
		</defs>
		<clipPath id="SVGID_38_">
			<use xlink:href="#SVGID_37_"  style="overflow:visible;"/>
		</clipPath>
		<g class="st18">
			<g>
				<defs>
					<rect id="SVGID_39_" x="432.1" y="479.4" width="54.9" height="159.3"/>
				</defs>
				<clipPath id="SVGID_40_">
					<use xlink:href="#SVGID_39_"  style="overflow:visible;"/>
				</clipPath>
				<g class="st19">
					<defs>
						<path id="SVGID_41_" d="M458.6,636.9c-14.6,0-26.5-12.1-26.5-27V506.4c0-14.9,11.9-27,26.5-27c14.6,0,26.5,12.1,26.5,27V610
							C485.1,624.8,473.2,636.9,458.6,636.9 M458.6,481.6c-13.4,0-24.4,11.1-24.4,24.8V610c0,13.7,10.9,24.8,24.4,24.8
							c13.4,0,24.4-11.1,24.4-24.8V506.4C483,492.7,472.1,481.6,458.6,481.6"/>
					</defs>
					<clipPath id="SVGID_42_">
						<use xlink:href="#SVGID_41_"  style="overflow:visible;"/>
					</clipPath>
					<g class="st20">
						<defs>
							<rect id="SVGID_43_" x="432.1" y="479.4" width="54.9" height="159.3"/>
						</defs>
						<clipPath id="SVGID_44_">
							<use xlink:href="#SVGID_43_"  style="overflow:visible;"/>
						</clipPath>
						<rect x="418.4" y="465.7" class="st21" width="80.5" height="185"/>
					</g>
				</g>
			</g>
		</g>
	</g>
</g>
<g>
	<defs>
		<rect id="SVGID_45_" x="550.2" y="477.8" width="40.3" height="157.5"/>
	</defs>
	<clipPath id="SVGID_46_">
		<use xlink:href="#SVGID_45_"  style="overflow:visible;"/>
	</clipPath>
	<g class="st22">
		<defs>
			<rect id="SVGID_47_" x="-1447" y="-520.6" width="3956.1" height="2241.8"/>
		</defs>
		<clipPath id="SVGID_48_">
			<use xlink:href="#SVGID_47_"  style="overflow:visible;"/>
		</clipPath>
		<g class="st23">
			<g>
				<defs>
					<rect id="SVGID_49_" x="550.2" y="476.7" width="41.2" height="159.3"/>
				</defs>
				<clipPath id="SVGID_50_">
					<use xlink:href="#SVGID_49_"  style="overflow:visible;"/>
				</clipPath>
				<g class="st24">
					<defs>
						<path id="SVGID_51_" d="M589.5,613.7c-0.6,0-1.1,0.5-1.1,1.1c0,12.6-6,18.3-11.7,18.3c-5.6,0-11.7-5.7-11.7-18.3v-136
							c0-0.6-0.5-1.1-1.1-1.1c-0.6,0-1.1,0.5-1.1,1.1c0,6.1,0,24.8-11.7,24.8c-0.6,0-1.1,0.5-1.1,1.1s0.5,1.1,1.1,1.1
							c6.4,0,9.8-4.4,11.7-9.7v118.7c0,14.1,7.1,20.5,13.8,20.5c6.6,0,13.8-6.4,13.8-20.5C590.5,614.2,590.1,613.7,589.5,613.7"/>
					</defs>
					<clipPath id="SVGID_52_">
						<use xlink:href="#SVGID_51_"  style="overflow:visible;"/>
					</clipPath>
					<g class="st25">
						<defs>
							<rect id="SVGID_53_" x="550.2" y="476.7" width="41.2" height="159.3"/>
						</defs>
						<clipPath id="SVGID_54_">
							<use xlink:href="#SVGID_53_"  style="overflow:visible;"/>
						</clipPath>
						<rect x="536.5" y="464.1" class="st26" width="67.8" height="185"/>
					</g>
				</g>
			</g>
		</g>
	</g>
</g>
<g>
	<defs>
		<path id="SVGID_55_" d="M564,470.5c2.8,0,5.1-2.3,5.1-5.1s-2.3-5.1-5.1-5.1c-2.8,0-5.1,2.3-5.1,5.1S561.2,470.5,564,470.5
			 M564,462.3c1.6,0,2.9,1.3,2.9,3c0,1.6-1.3,3-2.9,3c-1.6,0-2.9-1.3-2.9-3C561.1,463.7,562.4,462.3,564,462.3"/>
	</defs>
	<clipPath id="SVGID_56_">
		<use xlink:href="#SVGID_55_"  style="overflow:visible;"/>
	</clipPath>
	<g class="st27">
		<defs>
			<rect id="SVGID_57_" x="-1447" y="-520.6" width="3956.1" height="2241.8"/>
		</defs>
		<clipPath id="SVGID_58_">
			<use xlink:href="#SVGID_57_"  style="overflow:visible;"/>
		</clipPath>
		<rect x="545.2" y="446.4" class="st28" width="37.6" height="37.8"/>
	</g>
</g>
<g>
	<defs>
		<rect id="SVGID_59_" x="588.7" y="479.4" width="53" height="159.1"/>
	</defs>
	<clipPath id="SVGID_60_">
		<use xlink:href="#SVGID_59_"  style="overflow:visible;"/>
	</clipPath>
	<g class="st29">
		<defs>
			<rect id="SVGID_61_" x="-1447" y="-520.6" width="3956.1" height="2241.8"/>
		</defs>
		<clipPath id="SVGID_62_">
			<use xlink:href="#SVGID_61_"  style="overflow:visible;"/>
		</clipPath>
		<g class="st30">
			<g>
				<defs>
					<rect id="SVGID_63_" x="588.7" y="479.4" width="54.9" height="159.3"/>
				</defs>
				<clipPath id="SVGID_64_">
					<use xlink:href="#SVGID_63_"  style="overflow:visible;"/>
				</clipPath>
				<g class="st31">
					<defs>
						<path id="SVGID_65_" d="M615.2,479.4c-10.9,0-20.3,6.8-24.4,16.4v-13.7c0-0.6-0.5-1.1-1.1-1.1c-0.6,0-1.1,0.5-1.1,1.1v24.3
							v111.7v17.8c0,0.6,0.5,1.1,1.1,1.1c0.6,0,1.1-0.5,1.1-1.1v-17.8V506.4c0-13.7,10.9-24.8,24.4-24.8s24.4,11.1,24.4,24.8v131.1
							c0,0.6,0.5,1.1,1.1,1.1c0.6,0,1.1-0.5,1.1-1.1V506.4C641.7,491.5,629.8,479.4,615.2,479.4"/>
					</defs>
					<clipPath id="SVGID_66_">
						<use xlink:href="#SVGID_65_"  style="overflow:visible;"/>
					</clipPath>
					<g class="st32">
						<defs>
							<rect id="SVGID_67_" x="588.7" y="479.4" width="54.9" height="159.3"/>
						</defs>
						<clipPath id="SVGID_68_">
							<use xlink:href="#SVGID_67_"  style="overflow:visible;"/>
						</clipPath>
						<rect x="575" y="465.7" class="st33" width="80.5" height="186.6"/>
					</g>
				</g>
			</g>
		</g>
	</g>
</g>
<g>
	<defs>
		<path id="SVGID_69_" d="M741.8,610.6c0,13.7-35.5,24.2-49,24.2c-13.4,0-24.4-11.1-24.4-24.8v-6.4c14.2-8.4,24.6-22.6,31.7-35.2
			c12.5-22.2,19.2-48.6,19.2-62c0-14.9-11.9-27-26.5-27c-14.6,0-26.5,12.1-26.5,27v95.8c-7.4,4.2-15.5,6.7-24.4,6.7
			c-0.6,0-1.1,0.5-1.1,1.1c0,0.6,0.5,1.1,1.1,1.1c9.1,0,17.2-2.4,24.4-6.3v5.2c0,14.9,11.9,27,26.5,27c14.6,0,51.1-11.5,51.1-26.3
			c0-0.6-0.5-1.1-1.1-1.1C742.3,609.5,741.8,610,741.8,610.6z M668.5,506.4c0-13.7,10.9-24.8,24.4-24.8c13.4,0,24.4,11.1,24.4,24.8
			c0,21.1-16.7,74.4-48.8,94.6V506.4z"/>
	</defs>
	<clipPath id="SVGID_70_">
		<use xlink:href="#SVGID_69_"  style="overflow:visible;"/>
	</clipPath>
	<g class="st34">
		<defs>
			<rect id="SVGID_71_" x="-1447" y="-520.6" width="3956.1" height="2241.8"/>
		</defs>
		<clipPath id="SVGID_72_">
			<use xlink:href="#SVGID_71_"  style="overflow:visible;"/>
		</clipPath>
		<rect x="627.2" y="465.7" class="st35" width="130.5" height="185"/>
	</g>
</g>
</svg>
