<?xml version="1.0" encoding="utf-8"?>
<!-- Generator: Adobe Illustrator 19.2.1, SVG Export Plug-In . SVG Version: 6.00 Build 0)  -->
<svg version="1.1" id="Calque_1" xmlns="http://www.w3.org/2000/svg" xmlns:xlink="http://www.w3.org/1999/xlink" x="0px" y="0px"
	 viewBox="0 0 1000 1000" style="enable-background:new 0 0 1000 1000;" xml:space="preserve">
<style type="text/css">
	.st0{enable-background:new    ;}
	.st1{clip-path:url(#SVGID_2_);}
	.st2{clip-path:url(#SVGID_4_);}
	.st3{clip-path:url(#SVGID_6_);fill:#FFFFFF;}
	.st4{clip-path:url(#SVGID_8_);fill:none;stroke:#FFFFFF;stroke-width:4;stroke-miterlimit:10;}
	.st5{clip-path:url(#SVGID_10_);}
	.st6{clip-path:url(#SVGID_12_);fill:#FFFFFF;}
	.st7{clip-path:url(#SVGID_14_);fill:none;stroke:#FFFFFF;stroke-width:4;stroke-miterlimit:10;}
	.st8{clip-path:url(#SVGID_16_);}
	.st9{clip-path:url(#SVGID_18_);fill:#FFFFFF;}
	.st10{clip-path:url(#SVGID_20_);fill:none;stroke:#FFFFFF;stroke-width:4;stroke-miterlimit:10;}
	.st11{clip-path:url(#SVGID_22_);}
	.st12{clip-path:url(#SVGID_24_);fill:#FFFFFF;}
	.st13{clip-path:url(#SVGID_26_);fill:none;stroke:#FFFFFF;stroke-width:4;stroke-miterlimit:10;}
	.st14{clip-path:url(#SVGID_28_);}
	.st15{clip-path:url(#SVGID_30_);fill:#FFFFFF;}
	.st16{clip-path:url(#SVGID_32_);fill:none;stroke:#FFFFFF;stroke-width:4;stroke-miterlimit:10;}
	.st17{clip-path:url(#SVGID_34_);}
	.st18{clip-path:url(#SVGID_36_);fill:#FFFFFF;}
	.st19{clip-path:url(#SVGID_38_);fill:none;stroke:#FFFFFF;stroke-width:4;stroke-miterlimit:10;}
	.st20{clip-path:url(#SVGID_40_);}
	.st21{clip-path:url(#SVGID_42_);fill:#FFFFFF;}
	.st22{clip-path:url(#SVGID_44_);fill:none;stroke:#FFFFFF;stroke-width:4;stroke-miterlimit:10;}
	.st23{clip-path:url(#SVGID_46_);}
	.st24{clip-path:url(#SVGID_48_);fill:#FFFFFF;}
	.st25{clip-path:url(#SVGID_50_);fill:none;stroke:#FFFFFF;stroke-width:4;stroke-miterlimit:10;}
	.st26{clip-path:url(#SVGID_52_);}
	.st27{clip-path:url(#SVGID_54_);fill:#FFFFFF;}
	.st28{clip-path:url(#SVGID_56_);fill:none;stroke:#FFFFFF;stroke-width:4;stroke-miterlimit:10;}
	.st29{clip-path:url(#SVGID_56_);fill:none;stroke:#FFFFFF;stroke-width:6.7;stroke-miterlimit:10;}
</style>
<g class="st0">
	<g>
		<defs>
			<rect id="SVGID_1_" x="162" y="251" width="672" height="501"/>
		</defs>
		<clipPath id="SVGID_2_">
			<use xlink:href="#SVGID_1_"  style="overflow:visible;"/>
		</clipPath>
		<g class="st1">
			<defs>
				<path id="SVGID_3_" d="M260.3,485.6h-93.7V254.1c0-0.6-0.6-1.1-1.3-1.1c-0.7,0-1.3,0.5-1.3,1.1v232.6c0,0.6,0.6,1.1,1.3,1.1h95
					c0.7,0,1.3-0.5,1.3-1.1C261.7,486.1,261.1,485.6,260.3,485.6"/>
			</defs>
			<clipPath id="SVGID_4_">
				<use xlink:href="#SVGID_3_"  style="overflow:visible;"/>
			</clipPath>
			<g class="st2">
				<defs>
					<rect id="SVGID_5_" x="162" y="251" width="672" height="501"/>
				</defs>
				<clipPath id="SVGID_6_">
					<use xlink:href="#SVGID_5_"  style="overflow:visible;"/>
				</clipPath>
				<rect x="159" y="248" class="st3" width="107.7" height="244.7"/>
			</g>
		</g>
		<g class="st1">
			<defs>
				<rect id="SVGID_7_" x="162" y="251" width="672" height="501"/>
			</defs>
			<clipPath id="SVGID_8_">
				<use xlink:href="#SVGID_7_"  style="overflow:visible;"/>
			</clipPath>
			<path class="st4" d="M260.3,485.6h-93.7V254.1c0-0.6-0.6-1.1-1.3-1.1c-0.7,0-1.3,0.5-1.3,1.1v232.6c0,0.6,0.6,1.1,1.3,1.1h95
				c0.7,0,1.3-0.5,1.3-1.1C261.7,486.1,261.1,485.6,260.3,485.6z"/>
		</g>
		<g class="st1">
			<defs>
				<path id="SVGID_9_" d="M338.3,467c-0.7,0-1.3,0.5-1.3,1.1c0,12.6-7.5,18.3-14.5,18.3c-7,0-14.5-5.7-14.5-18.3v-6.5V397v-40.4
					c0-17.4-17.1-25.3-33-25.3c-15.9,0-33,7.9-33,25.3c0,0.6,0.6,1.1,1.3,1.1c0.7,0,1.3-0.5,1.3-1.1c0-15.9,15.7-23.1,30.4-23.1
					c14.6,0,30.4,7.2,30.4,23.1v29.8c-5-9.6-16.7-16.4-30.4-16.4c-18.2,0-33,12.1-33,26.9v64.6c0,14.8,14.8,26.9,33,26.9
					c13.8,0,25.7-7,30.6-16.8c0.6,4.6,2.2,8.6,5,11.6c3.1,3.4,7.4,5.3,11.9,5.3c8.3,0,17.2-6.4,17.2-20.5
					C339.7,467.5,339.1,467,338.3,467 M275,486.4c-16.7,0-30.4-11.1-30.4-24.8V397c0-13.7,13.6-24.8,30.4-24.8s30.4,11.1,30.4,24.8
					v64.6C305.3,475.3,291.7,486.4,275,486.4"/>
			</defs>
			<clipPath id="SVGID_10_">
				<use xlink:href="#SVGID_9_"  style="overflow:visible;"/>
			</clipPath>
			<g class="st5">
				<defs>
					<rect id="SVGID_11_" x="162" y="251" width="672" height="501"/>
				</defs>
				<clipPath id="SVGID_12_">
					<use xlink:href="#SVGID_11_"  style="overflow:visible;"/>
				</clipPath>
				<rect x="237" y="326.3" class="st6" width="107.7" height="167.2"/>
			</g>
		</g>
		<g class="st1">
			<defs>
				<rect id="SVGID_13_" x="162" y="251" width="672" height="501"/>
			</defs>
			<clipPath id="SVGID_14_">
				<use xlink:href="#SVGID_13_"  style="overflow:visible;"/>
			</clipPath>
			<path class="st7" d="M338.3,467c-0.7,0-1.3,0.5-1.3,1.1c0,12.6-7.5,18.3-14.5,18.3c-7,0-14.5-5.7-14.5-18.3v-6.5V397v-40.4
				c0-17.4-17.1-25.3-33-25.3c-15.9,0-33,7.9-33,25.3c0,0.6,0.6,1.1,1.3,1.1c0.7,0,1.3-0.5,1.3-1.1c0-15.9,15.7-23.1,30.4-23.1
				c14.6,0,30.4,7.2,30.4,23.1v29.8c-5-9.6-16.7-16.4-30.4-16.4c-18.2,0-33,12.1-33,26.9v64.6c0,14.8,14.8,26.9,33,26.9
				c13.8,0,25.7-7,30.6-16.8c0.6,4.6,2.2,8.6,5,11.6c3.1,3.4,7.4,5.3,11.9,5.3c8.3,0,17.2-6.4,17.2-20.5
				C339.7,467.5,339.1,467,338.3,467z M275,486.4c-16.7,0-30.4-11.1-30.4-24.8V397c0-13.7,13.6-24.8,30.4-24.8s30.4,11.1,30.4,24.8
				v64.6C305.3,475.3,291.7,486.4,275,486.4z"/>
		</g>
		<g class="st1">
			<defs>
				<path id="SVGID_15_" d="M434.7,502.9c0-20.4-20.3-37-45.3-37h-51c-0.7,0-1.3,0.5-1.3,1.1v232.6c0,0.6,0.6,1.1,1.3,1.1h51
					c25,0,45.3-16.6,45.3-37v-31.6c0-5.7-1.7-11.4-4.8-16.5c3.1-5,4.8-10.6,4.8-16.5V502.9z M432,632.1v31.6
					c0,19.2-19.1,34.8-42.7,34.8h-49.7v-62.5h49.7c16.6,0,31.1-7.3,39-18.1C430.8,622.4,432,627.2,432,632.1z M432,599.1
					c0,19.2-19.1,34.8-42.7,34.8h-49.7V468.1h49.7c23.5,0,42.7,15.6,42.7,34.8V599.1z"/>
			</defs>
			<clipPath id="SVGID_16_">
				<use xlink:href="#SVGID_15_"  style="overflow:visible;"/>
			</clipPath>
			<g class="st8">
				<defs>
					<rect id="SVGID_17_" x="162" y="251" width="672" height="501"/>
				</defs>
				<clipPath id="SVGID_18_">
					<use xlink:href="#SVGID_17_"  style="overflow:visible;"/>
				</clipPath>
				<rect x="332" y="460.9" class="st9" width="107.7" height="244.7"/>
			</g>
		</g>
		<g class="st1">
			<defs>
				<rect id="SVGID_19_" x="162" y="251" width="672" height="501"/>
			</defs>
			<clipPath id="SVGID_20_">
				<use xlink:href="#SVGID_19_"  style="overflow:visible;"/>
			</clipPath>
			<path class="st10" d="M434.7,502.9c0-20.4-20.3-37-45.3-37h-51c-0.7,0-1.3,0.5-1.3,1.1v232.6c0,0.6,0.6,1.1,1.3,1.1h51
				c25,0,45.3-16.6,45.3-37v-31.6c0-5.7-1.7-11.4-4.8-16.5c3.1-5,4.8-10.6,4.8-16.5V502.9z M432,632.1v31.6
				c0,19.2-19.1,34.8-42.7,34.8h-49.7v-62.5h49.7c16.6,0,31.1-7.3,39-18.1C430.8,622.4,432,627.2,432,632.1z M432,599.1
				c0,19.2-19.1,34.8-42.7,34.8h-49.7V468.1h49.7c23.5,0,42.7,15.6,42.7,34.8V599.1z"/>
		</g>
		<g class="st1">
			<defs>
				<path id="SVGID_21_" d="M487,699.8c-18.2,0-33-12.1-33-26.9V569.6c0-14.8,14.8-26.9,33-26.9c18.2,0,33,12.1,33,26.9v103.4
					C520,687.8,505.2,699.8,487,699.8 M487,544.8c-16.7,0-30.4,11.1-30.4,24.8v103.4c0,13.7,13.6,24.8,30.4,24.8
					s30.4-11.1,30.4-24.8V569.6C517.3,555.9,503.7,544.8,487,544.8"/>
			</defs>
			<clipPath id="SVGID_22_">
				<use xlink:href="#SVGID_21_"  style="overflow:visible;"/>
			</clipPath>
			<g class="st11">
				<defs>
					<rect id="SVGID_23_" x="162" y="251" width="672" height="501"/>
				</defs>
				<clipPath id="SVGID_24_">
					<use xlink:href="#SVGID_23_"  style="overflow:visible;"/>
				</clipPath>
				<rect x="449" y="537.6" class="st12" width="76" height="167.2"/>
			</g>
		</g>
		<g class="st1">
			<defs>
				<rect id="SVGID_25_" x="162" y="251" width="672" height="501"/>
			</defs>
			<clipPath id="SVGID_26_">
				<use xlink:href="#SVGID_25_"  style="overflow:visible;"/>
			</clipPath>
			<path class="st13" d="M487,699.8c-18.2,0-33-12.1-33-26.9V569.6c0-14.8,14.8-26.9,33-26.9c18.2,0,33,12.1,33,26.9v103.4
				C520,687.8,505.2,699.8,487,699.8z M487,544.8c-16.7,0-30.4,11.1-30.4,24.8v103.4c0,13.7,13.6,24.8,30.4,24.8
				s30.4-11.1,30.4-24.8V569.6C517.3,555.9,503.7,544.8,487,544.8z"/>
		</g>
		<g class="st1">
			<defs>
				<path id="SVGID_27_" d="M569.7,542.6c-13.6,0-25.3,6.8-30.4,16.4v-46.6c15.5-0.7,31.7-13.3,31.7-33.3c0-10.2-8.6-15.6-17.2-15.6
					c-8.5,0-17.2,5.4-17.2,15.6v31.2c-9.1-0.1-29-1.2-29-24.8c0-0.6-0.6-1.1-1.3-1.1s-1.3,0.5-1.3,1.1c0,25.6,22.5,26.9,31.7,26.9
					v57.1v103.4c0,14.8,14.8,26.9,33,26.9s33-12.1,33-26.9V569.6C602.7,554.7,587.9,542.6,569.7,542.6z M539.3,479.1
					c0-9.2,7.5-13.5,14.5-13.5c7,0,14.5,4.2,14.5,13.5c0,18.7-14.8,30.5-29,31.2V479.1z M600,672.9c0,13.7-13.6,24.8-30.4,24.8
					c-16.7,0-30.4-11.1-30.4-24.8V569.6c0-13.7,13.6-24.8,30.4-24.8c16.7,0,30.4,11.1,30.4,24.8V672.9z"/>
			</defs>
			<clipPath id="SVGID_28_">
				<use xlink:href="#SVGID_27_"  style="overflow:visible;"/>
			</clipPath>
			<g class="st14">
				<defs>
					<rect id="SVGID_29_" x="162" y="251" width="672" height="501"/>
				</defs>
				<clipPath id="SVGID_30_">
					<use xlink:href="#SVGID_29_"  style="overflow:visible;"/>
				</clipPath>
				<rect x="500" y="458.5" class="st15" width="107.7" height="246.3"/>
			</g>
		</g>
		<g class="st1">
			<defs>
				<rect id="SVGID_31_" x="162" y="251" width="672" height="501"/>
			</defs>
			<clipPath id="SVGID_32_">
				<use xlink:href="#SVGID_31_"  style="overflow:visible;"/>
			</clipPath>
			<path class="st16" d="M569.7,542.6c-13.6,0-25.3,6.8-30.4,16.4v-46.6c15.5-0.7,31.7-13.3,31.7-33.3c0-10.2-8.6-15.6-17.2-15.6
				c-8.5,0-17.2,5.4-17.2,15.6v31.2c-9.1-0.1-29-1.2-29-24.8c0-0.6-0.6-1.1-1.3-1.1s-1.3,0.5-1.3,1.1c0,25.6,22.5,26.9,31.7,26.9
				v57.1v103.4c0,14.8,14.8,26.9,33,26.9s33-12.1,33-26.9V569.6C602.7,554.7,587.9,542.6,569.7,542.6z M539.3,479.1
				c0-9.2,7.5-13.5,14.5-13.5c7,0,14.5,4.2,14.5,13.5c0,18.7-14.8,30.5-29,31.2V479.1z M600,672.9c0,13.7-13.6,24.8-30.4,24.8
				s-30.4-11.1-30.4-24.8V569.6c0-13.7,13.6-24.8,30.4-24.8s30.4,11.1,30.4,24.8V672.9z"/>
		</g>
		<g class="st1">
			<defs>
				<path id="SVGID_33_" d="M651.8,677.9c-0.7,0-1.3,0.5-1.3,1.1c0,12.6-7.5,18.3-14.5,18.3c-7,0-14.5-5.7-14.5-18.3V543.3
					c0-0.6-0.6-1.1-1.3-1.1s-1.3,0.5-1.3,1.1c0,6.1,0,24.8-14.5,24.8c-0.7,0-1.3,0.5-1.3,1.1c0,0.6,0.6,1.1,1.3,1.1
					c8,0,12.2-4.4,14.5-9.7V679c0,14.1,8.9,20.5,17.2,20.5c8.3,0,17.2-6.4,17.2-20.5C653.1,678.4,652.6,677.9,651.8,677.9"/>
			</defs>
			<clipPath id="SVGID_34_">
				<use xlink:href="#SVGID_33_"  style="overflow:visible;"/>
			</clipPath>
			<g class="st17">
				<defs>
					<rect id="SVGID_35_" x="162" y="251" width="672" height="501"/>
				</defs>
				<clipPath id="SVGID_36_">
					<use xlink:href="#SVGID_35_"  style="overflow:visible;"/>
				</clipPath>
				<rect x="598" y="537.3" class="st18" width="60.1" height="167.2"/>
			</g>
		</g>
		<g class="st1">
			<defs>
				<rect id="SVGID_37_" x="162" y="251" width="672" height="501"/>
			</defs>
			<clipPath id="SVGID_38_">
				<use xlink:href="#SVGID_37_"  style="overflow:visible;"/>
			</clipPath>
			<path class="st19" d="M651.8,677.9c-0.7,0-1.3,0.5-1.3,1.1c0,12.6-7.5,18.3-14.5,18.3c-7,0-14.5-5.7-14.5-18.3V543.3
				c0-0.6-0.6-1.1-1.3-1.1s-1.3,0.5-1.3,1.1c0,6.1,0,24.8-14.5,24.8c-0.7,0-1.3,0.5-1.3,1.1c0,0.6,0.6,1.1,1.3,1.1
				c8,0,12.2-4.4,14.5-9.7V679c0,14.1,8.9,20.5,17.2,20.5c8.3,0,17.2-6.4,17.2-20.5C653.1,678.4,652.6,677.9,651.8,677.9z"/>
		</g>
		<g class="st1">
			<defs>
				<path id="SVGID_39_" d="M620.2,535c3.5,0,6.3-2.3,6.3-5.1c0-2.8-2.8-5.1-6.3-5.1s-6.3,2.3-6.3,5.1
					C613.9,532.7,616.7,535,620.2,535 M620.2,526.8c2,0,3.7,1.3,3.7,3c0,1.6-1.6,3-3.7,3s-3.7-1.3-3.7-3
					C616.5,528.2,618.1,526.8,620.2,526.8"/>
			</defs>
			<clipPath id="SVGID_40_">
				<use xlink:href="#SVGID_39_"  style="overflow:visible;"/>
			</clipPath>
			<g class="st20">
				<defs>
					<rect id="SVGID_41_" x="162" y="251" width="672" height="501"/>
				</defs>
				<clipPath id="SVGID_42_">
					<use xlink:href="#SVGID_41_"  style="overflow:visible;"/>
				</clipPath>
				<rect x="608.9" y="519.7" class="st21" width="22.6" height="20.3"/>
			</g>
		</g>
		<g class="st1">
			<defs>
				<rect id="SVGID_43_" x="162" y="251" width="672" height="501"/>
			</defs>
			<clipPath id="SVGID_44_">
				<use xlink:href="#SVGID_43_"  style="overflow:visible;"/>
			</clipPath>
			<path class="st22" d="M620.2,535c3.5,0,6.3-2.3,6.3-5.1c0-2.8-2.8-5.1-6.3-5.1s-6.3,2.3-6.3,5.1C613.9,532.7,616.7,535,620.2,535
				z M620.2,526.8c2,0,3.7,1.3,3.7,3c0,1.6-1.6,3-3.7,3c-2,0-3.7-1.3-3.7-3C616.5,528.2,618.1,526.8,620.2,526.8z"/>
		</g>
		<g class="st1">
			<defs>
				<path id="SVGID_45_" d="M684,541c-13.6,0-25.3,6.8-30.4,16.4v-13.7c0-0.6-0.6-1.1-1.3-1.1c-0.7,0-1.3,0.5-1.3,1.1v24.2v111.4
					v17.8c0,0.6,0.6,1.1,1.3,1.1c0.7,0,1.3-0.5,1.3-1.1v-17.8V567.9c0-13.7,13.6-24.8,30.4-24.8s30.4,11.1,30.4,24.8v130.8
					c0,0.6,0.6,1.1,1.3,1.1c0.7,0,1.3-0.5,1.3-1.1V567.9C717,553.1,702.2,541,684,541"/>
			</defs>
			<clipPath id="SVGID_46_">
				<use xlink:href="#SVGID_45_"  style="overflow:visible;"/>
			</clipPath>
			<g class="st23">
				<defs>
					<rect id="SVGID_47_" x="162" y="251" width="672" height="501"/>
				</defs>
				<clipPath id="SVGID_48_">
					<use xlink:href="#SVGID_47_"  style="overflow:visible;"/>
				</clipPath>
				<rect x="646" y="536" class="st24" width="76" height="168.8"/>
			</g>
		</g>
		<g class="st1">
			<defs>
				<rect id="SVGID_49_" x="162" y="251" width="672" height="501"/>
			</defs>
			<clipPath id="SVGID_50_">
				<use xlink:href="#SVGID_49_"  style="overflow:visible;"/>
			</clipPath>
			<path class="st25" d="M684,541c-13.6,0-25.3,6.8-30.4,16.4v-13.7c0-0.6-0.6-1.1-1.3-1.1c-0.7,0-1.3,0.5-1.3,1.1v24.2v111.4v17.8
				c0,0.6,0.6,1.1,1.3,1.1c0.7,0,1.3-0.5,1.3-1.1v-17.8V567.9c0-13.7,13.6-24.8,30.4-24.8s30.4,11.1,30.4,24.8v130.8
				c0,0.6,0.6,1.1,1.3,1.1c0.7,0,1.3-0.5,1.3-1.1V567.9C717,553.1,702.2,541,684,541z"/>
		</g>
		<g class="st1">
			<defs>
				<path id="SVGID_51_" d="M813.3,672.7c-0.7,0-1.3,0.5-1.3,1.1c0,13.7-13.6,24.8-30.4,24.8s-30.4-11.1-30.4-24.8v-6.4
					c17.6-8.4,30.6-22.5,39.4-35.1c15.5-22.2,23.9-48.5,23.9-61.9c0-14.8-14.8-26.9-33-26.9c-18.2,0-33,12.1-33,26.9V666
					c-9.2,4.2-19.3,6.7-30.4,6.7c-0.7,0-1.3,0.5-1.3,1.1c0,0.6,0.6,1.1,1.3,1.1c11.3,0,21.4-2.4,30.4-6.2v5.2
					c0,14.8,14.8,26.9,33,26.9c18.2,0,33-12.1,33-26.9C814.7,673.1,814.1,672.7,813.3,672.7z M751.3,570.4
					c0-13.7,13.6-24.8,30.4-24.8s30.4,11.1,30.4,24.8c0,21.1-20.7,74.2-60.7,94.4V570.4z"/>
			</defs>
			<clipPath id="SVGID_52_">
				<use xlink:href="#SVGID_51_"  style="overflow:visible;"/>
			</clipPath>
			<g class="st26">
				<defs>
					<rect id="SVGID_53_" x="162" y="251" width="672" height="501"/>
				</defs>
				<clipPath id="SVGID_54_">
					<use xlink:href="#SVGID_53_"  style="overflow:visible;"/>
				</clipPath>
				<rect x="712" y="538.5" class="st27" width="107.7" height="167.2"/>
			</g>
		</g>
		<g class="st1">
			<defs>
				<rect id="SVGID_55_" x="162" y="251" width="672" height="501"/>
			</defs>
			<clipPath id="SVGID_56_">
				<use xlink:href="#SVGID_55_"  style="overflow:visible;"/>
			</clipPath>
			<path class="st28" d="M813.3,672.7c-0.7,0-1.3,0.5-1.3,1.1c0,13.7-13.6,24.8-30.4,24.8s-30.4-11.1-30.4-24.8v-6.4
				c17.6-8.4,30.6-22.5,39.4-35.1c15.5-22.2,23.9-48.5,23.9-61.9c0-14.8-14.8-26.9-33-26.9s-33,12.1-33,26.9V666
				c-9.2,4.2-19.3,6.7-30.4,6.7c-0.7,0-1.3,0.5-1.3,1.1c0,0.6,0.6,1.1,1.3,1.1c11.3,0,21.4-2.4,30.4-6.2v5.2
				c0,14.8,14.8,26.9,33,26.9s33-12.1,33-26.9C814.7,673.1,814.1,672.7,813.3,672.7z M751.3,570.4c0-13.7,13.6-24.8,30.4-24.8
				s30.4,11.1,30.4,24.8c0,21.1-20.7,74.2-60.7,94.4V570.4z"/>
			<path class="st29" d="M812.7,678.5c1.7-6,3.4-10.4-2.8-17.2c-6.2-6.8-19.2-7.9-22.5-1.4c-3.2,6.5-4.3,28.6,24.2,36.6
				c28.5,7.9,18.1,23.5,15.2,25.8c-2.9,2.2-23.6,23-104.9,25.4c-81.2,2.4-251.9,0-251.9,0H295.8"/>
		</g>
	</g>
</g>
</svg>
